<svg width="85" height="22" viewBox="0 0 85 22" xmlns="http://www.w3.org/2000/svg" xmlns:xlink="http://www.w3.org/1999/xlink"><title>jQuery-Logo</title><defs><path id="a" d="M.27.191h3.436v3.751H.269z"/><path id="c" d="M.27.191h3.436v3.751H.269z"/><path id="e" d="M.018.056h77.085v17.96H.018z"/><path id="g" d="M.018.056h77.085v17.96H.018z"/><path id="i" d="M.146.172h20.68v13.324H.146z"/><path id="k" d="M.146.172h20.68v13.324H.146z"/><path id="m" d="M.085.077h37.482v14.63H.085z"/><path id="o" d="M.085.077h37.482v14.63H.085z"/></defs><g fill="none" fill-rule="evenodd"><path d="M32.663 19.265c-.006.187-.019.38-.043.583l.758-1.375-.083-.448.761-.117.277 1.905.35-1.194c.028-.117.043-.204.046-.291a1.133 1.133 0 0 0-.036-.31l.798-.15c.029.162.047.303.042.448-.007.192-.055.402-.188.716l-.642 1.725h-.95l-.2-1.287-.744 1.287h-.92c.036-1.2-.008-1.952-.09-2.738l.79-.122c.06.436.092.873.074 1.368M37.608 18.607c-.368.198-.504.274-.838.478l-.355 1.672h-.821l.58-2.767.726-.123-.031.385c.28-.163.505-.28.753-.385l-.014.74M38.36 16.731l.85-.116-.188.874-.843.116.182-.874zm-.264 1.253l.849-.117-.614 2.89h-.821l.586-2.773zM40.457 18.578l-.3 1.416c-.007.029-.014.058-.014.075-.001.041.021.059.08.059.14 0 .298-.059.446-.117l.143.571a2.022 2.022 0 0 1-.91.233c-.414 0-.629-.198-.617-.536.001-.04.01-.081.016-.122l.335-1.579h-.42l.14-.658h.42l.14-.682.848-.116-.168.798h.676l-.186.658h-.629M42.93 18.66c.003-.1-.082-.164-.233-.164-.298 0-.39.17-.44.403l-.041.198c.14-.035.205-.047.376-.1.224-.064.332-.168.338-.338zm-1.495.273c.139-.652.445-1.071 1.342-1.071.536 0 .936.232.919.71-.02.554-.314.81-1.02 1.02-.348.105-.353.105-.6.169l-.042.198c-.021.105-.013.198.138.198.298 0 .734-.146 1.124-.315l.137.583c-.351.215-.899.39-1.4.39-.588 0-.83-.256-.813-.74.004-.105.02-.22.047-.343l.168-.799zM45.815 16.76l.849-.116-.866 4.113h-.821l.838-3.997M48.265 18.66c.003-.1-.082-.164-.233-.164-.297 0-.39.17-.44.403l-.041.198c.141-.035.205-.047.376-.1.224-.064.332-.168.338-.338zm-1.495.273c.139-.652.445-1.071 1.342-1.071.536 0 .936.232.919.71-.02.554-.314.81-1.02 1.02-.347.105-.353.105-.6.169l-.042.198c-.021.105-.013.198.139.198.297 0 .733-.146 1.123-.315l.137.583c-.351.215-.899.39-1.4.39-.588 0-.83-.256-.813-.74.004-.105.02-.22.047-.343l.168-.799zM49.099 20.629l.178-.606c.213.076.455.145.764.145.274 0 .294-.08.322-.215.028-.128-.052-.198-.366-.367-.583-.315-.599-.524-.508-.95.132-.611.318-.774 1.105-.774.267 0 .609.058.84.133l-.156.618a3.071 3.071 0 0 0-.713-.105c-.245 0-.28.03-.315.18-.028.135 0 .164.269.31.64.35.735.472.638.92-.14.641-.335.897-1.185.897-.262 0-.627-.076-.873-.186" fill="#1E5F98" fill-rule="nonzero"/><g transform="translate(51.183 17.67)"><mask id="b" fill="#fff"><use xlink:href="#a"/></mask><path d="M.27 2.959l.178-.606c.213.075.455.145.764.145.273 0 .294-.081.322-.215.027-.128-.052-.198-.366-.367C.585 1.6.568 1.39.66.966.79.354.978.191 1.764.191c.268 0 .61.059.84.134l-.156.618a3.073 3.073 0 0 0-.712-.105c-.245 0-.281.03-.316.18-.027.135 0 .164.269.31.64.349.735.471.638.92-.139.64-.334.897-1.185.897-.262 0-.626-.076-.873-.186" fill="#1E5F98" fill-rule="nonzero" mask="url(#b)"/></g><g transform="translate(51.183 17.67)"><mask id="d" fill="#fff"><use xlink:href="#c"/></mask><path fill="#1E5F98" fill-rule="nonzero" mask="url(#d)" d="M2.52 3.722l.47-.635h-.308l.203-.967h.82l-.222 1.037-.675.804-.288-.24"/></g><path d="M57.442 19.906c-.035.152.004.222.15.222.29 0 .505-.152.667-.292l.266-1.264a1.763 1.763 0 0 0-.32-.023c-.425 0-.52.227-.582.501l-.181.856zm.75.851l-.015-.245c-.21.17-.505.303-.913.303-.617 0-.755-.373-.623-1.008l.16-.763c.141-.675.334-1.182 1.528-1.182.087 0 .267.011.342.029l.238-1.13.842-.117-.865 4.113h-.694zM61.578 18.87c.007-.21-.117-.321-.385-.321-.309 0-.495.157-.55.437l-.148.705a.83.83 0 0 0-.016.116c-.007.204.117.32.386.32.314 0 .494-.157.55-.436l.148-.705c.007-.04.014-.082.015-.117zm-1.928.996c.002-.064.01-.134.025-.198l.14-.659c.152-.728.523-1.147 1.513-1.147.763 0 1.091.436 1.074.943-.003.064-.01.134-.025.204l-.139.659c-.147.681-.489 1.147-1.52 1.147-.722 0-1.086-.43-1.068-.95zM67.416 18.829c.007-.035.014-.064.015-.088.001-.058-.027-.082-.108-.082-.152 0-.512.152-.75.274l-.384 1.824h-.815l.405-1.928c.007-.035.014-.064.015-.088.002-.058-.026-.082-.108-.082-.151 0-.518.152-.743.269l-.384 1.83h-.822l.58-2.768.727-.123-.017.315c.45-.21.804-.32 1.13-.32.28 0 .42.122.477.332.44-.251.833-.332 1.16-.332.378 0 .51.215.498.576-.004.1-.014.21-.04.327l-.42 1.992h-.821l.405-1.928M70.495 18.87c.008-.21-.117-.321-.385-.321-.308 0-.495.157-.55.437l-.148.705a.875.875 0 0 0-.015.116c-.007.204.117.32.385.32.314 0 .494-.157.55-.436l.148-.705a.864.864 0 0 0 .015-.117zm-1.928.996c.003-.064.01-.134.025-.198l.14-.659c.153-.728.523-1.147 1.513-1.147.764 0 1.092.436 1.074.943-.002.064-.01.134-.025.204l-.139.659c-.146.681-.489 1.147-1.52 1.147-.722 0-1.086-.43-1.068-.95zM73.498 18.607a13.85 13.85 0 0 0-.837.478l-.356 1.672h-.821l.58-2.767.726-.123-.03.385c.28-.163.505-.28.753-.385l-.015.74M75.18 18.66c.004-.1-.081-.164-.233-.164-.297 0-.39.17-.44.403l-.041.198c.14-.035.205-.047.376-.1.224-.064.332-.168.338-.338zm-1.495.273c.14-.652.445-1.071 1.342-1.071.536 0 .936.232.92.71-.02.554-.315.81-1.021 1.02-.347.105-.353.105-.6.169l-.042.198c-.021.105-.013.198.139.198.297 0 .733-.146 1.123-.315l.137.583c-.351.215-.899.39-1.4.39-.588 0-.83-.256-.813-.74a1.87 1.87 0 0 1 .047-.343l.168-.799z" fill="#1E5F98" fill-rule="nonzero"/><g transform="translate(0 2.742)"><mask id="f" fill="#fff"><use xlink:href="#e"/></mask><path fill="#1E5F98" fill-rule="nonzero" mask="url(#f)" d="M76.282 17.048h.821l-.202.967h-.822l.203-.967"/></g><g transform="translate(0 2.742)"><mask id="h" fill="#fff"><use xlink:href="#g"/></mask><path d="M.996 1.43C-.392 3.425-.22 6.02.842 8.14c.024.051.051.1.077.15.015.032.032.065.05.097.008.017.02.037.03.054l.054.1.102.172c.02.032.038.064.06.096.036.061.078.122.116.183l.05.078a4.765 4.765 0 0 0 .175.25l.028.04c.051.07.103.138.156.206l.057.074.144.177.056.065c.064.077.13.153.199.228l.003.005.01.008a9.488 9.488 0 0 0 .428.438l.067.064c.073.068.146.136.222.201l.003.003c.013.011.027.022.038.033l.202.17.082.067.17.131.09.068a8.843 8.843 0 0 0 .258.184l.018.014.183.121.08.053a12.971 12.971 0 0 0 .366.22c.07.042.142.082.215.12.04.023.079.042.12.063.049.027.1.054.152.08l.037.016.062.031c.08.04.162.076.246.114.016.007.033.014.05.023.094.04.189.08.285.118.023.008.046.019.07.027a10.667 10.667 0 0 0 .301.111c.1.035.2.067.3.099.024.006.048.015.073.021.104.031.204.068.31.088 6.712 1.223 8.662-4.034 8.662-4.034-1.638 2.132-4.546 2.696-7.3 2.07-.103-.024-.204-.057-.307-.087a9.068 9.068 0 0 1-.37-.119l-.043-.015a7.2 7.2 0 0 1-.26-.097l-.073-.028a7.583 7.583 0 0 1-.282-.118l-.057-.024-.237-.111c-.024-.01-.045-.022-.069-.033a4.704 4.704 0 0 1-.183-.094c-.042-.021-.083-.041-.123-.063l-.222-.123c-.023-.016-.048-.029-.074-.043a11.289 11.289 0 0 1-.568-.363l-.066-.047a11.355 11.355 0 0 1-.279-.203l-.173-.136-.077-.062a7.03 7.03 0 0 1-.217-.183c-.007-.008-.017-.014-.025-.02a18.336 18.336 0 0 1-.227-.208l-.065-.062c-.055-.053-.11-.106-.163-.16l-.065-.065a6.664 6.664 0 0 1-.211-.223c-.07-.076-.136-.153-.204-.232l-.053-.063-.148-.181c-.016-.024-.034-.046-.052-.068a8.223 8.223 0 0 1-.17-.226C1.408 5.295.856 2.417 2.08.056" fill="#1E5F98" fill-rule="nonzero" mask="url(#h)"/></g><path d="M5.306 2.49C4.3 3.936 4.356 5.87 5.139 7.398c.13.256.277.505.443.74.15.216.317.472.518.646.07.08.146.157.225.235l.06.058c.074.072.15.143.229.213l.009.008.002.002c.088.077.177.15.269.222.021.016.04.033.062.048.091.071.184.14.279.206l.01.006c.04.029.084.056.128.085.02.012.04.027.06.04.069.044.137.086.208.128l.03.015c.06.036.122.071.185.103.021.014.043.024.064.036l.129.066.02.01c.089.043.179.083.267.124l.06.024c.074.031.147.062.22.09.033.01.064.024.095.035l.202.07.092.029c.096.03.192.069.294.084 5.18.86 6.379-3.131 6.379-3.131-1.08 1.554-3.168 2.294-5.397 1.716a4.555 4.555 0 0 1-.38-.113 4.304 4.304 0 0 1-.207-.071l-.093-.035c-.074-.029-.148-.057-.22-.089-.02-.009-.042-.016-.058-.025a7.44 7.44 0 0 1-.272-.125l-.136-.07-.077-.04a3.592 3.592 0 0 1-.173-.097l-.04-.022c-.07-.042-.142-.084-.208-.128l-.064-.041a6.458 6.458 0 0 1-.136-.09 8.92 8.92 0 0 1-.278-.204l-.063-.05c-.978-.77-1.751-1.823-2.117-3.016-.387-1.238-.302-2.628.365-3.756" fill="#1E5F98" fill-rule="nonzero"/><path d="M8.929 1.235c-.594.871-.65 1.953-.241 2.914.434 1.021 1.322 1.822 2.357 2.201.042.017.084.03.127.045l.059.018c.06.02.12.042.182.054 2.863.553 3.638-1.469 3.846-1.766-.68.98-1.824 1.214-3.226.873a4.5 4.5 0 0 1-.742-.272 4.242 4.242 0 0 1-.705-.431C9.33 3.919 8.553 2.104 9.37.625" fill="#1E5F98" fill-rule="nonzero"/><path d="M75.301 5.315l.185.474c.052.136-.09.246-.318.246M66.22 4.501l-.085.407-.99 4.636 1.041-4.884.034-.159M36.548 7.603L36 9.54l.547-1.936" fill="#2E2F2C" fill-rule="nonzero"/><g transform="translate(63.978 1.219)"><mask id="j" fill="#fff"><use xlink:href="#i"/></mask><path d="M11.383 4.57l-.285-1.206c-.225-.873-.863-1.286-2.297-1.286h-6.03c-.14 0-.278.062-.306.198L.177 13.126a.753.753 0 0 0-.023.303c.016.07.284.057.422.057h2.089c.14 0 .393.01.467-.02.078-.031.112-.238.14-.375l.738-3.804.902-4.22a.326.326 0 0 1 .305-.246l5.973-.004c.138 0 .225-.11.193-.246" fill="#2E2F2C" fill-rule="nonzero" mask="url(#j)"/></g><g transform="translate(63.978 1.219)"><mask id="l" fill="#fff"><use xlink:href="#k"/></mask><path d="M19.88.172c-.14.002-2.648 0-2.648 0-.14 0-.318.15-.395.264l-4.65 6.841c-.08.115-.17.111-.2-.024l-.344-1.5a.33.33 0 0 0-.308-.246h-2.99c-.137 0-.22.115-.183.249l1.34 4.697c.038.134.041.354.007.488l-.625 2.379c-.033.135.053.176.194.176h2.95c.14 0 .283-.04.316-.176l.626-2.412c.034-.135.13-.318.213-.43L20.772.414c.085-.11.073-.242-.066-.242h-.825" fill="#2E2F2C" fill-rule="nonzero" mask="url(#l)"/></g><path d="M52.743 3.306h-2.697c-.138 0-.279.048-.306.184l-.892 4.172-.888 3.994c-.028.135-.166.126-.305.126h-1.772c-1.754 0-1.552-1.108-1.191-2.769l1.125-5.523c.025-.135-.067-.184-.204-.184h-2.57c-.138 0-.276.049-.303.184l-1.034 5.52c-.516 2.983-.531 5.609 2.93 5.695.056.002 5.463 0 5.463 0 .14 0 .277-.045.307-.18L51.58 8.99l1.17-5.558s.04-.127-.006-.127M25.877 3.296h-2.892c-.139 0-.278.033-.31.17l-.521 2.258c-.03.133.059.24.199.24h2.769c.14 0 .278-.126.308-.26l.503-2.276s.04-.132-.056-.132M22.165 6.725a.331.331 0 0 0-.308.246l-.39 1.722-.87 3.977s-.463 2.115-.507 2.247c0 0-.39 1.526-1.32 1.465-.434-.028-.93-.128-.93-.128-.26-.078-.28.192-.31.327l-.575 2.478c-.033.135.056.257.193.26 0 0 1.245.175 2.124.175h.145c2.172 0 3.32-1.277 4.052-4.745l.86-4.013L25.135 7c.03-.136-.052-.262-.19-.262" fill="#2E2F2C" fill-rule="nonzero"/><g><g transform="translate(26.2)"><mask id="n" fill="#fff"><use xlink:href="#m"/></mask><path d="M34.65 8.053c0 .151-.477.122-.477.122l-3.792-.027c-.13 0-.168-.184-.177-.315 0-.005.01-.158.02-.196.293-1.016 1.168-1.597 2.554-1.597 1.56 0 1.893.773 1.893 1.631M33.367 3.28c-4.864 0-6.025 3.006-6.671 5.986-.646 3.039-.591 5.44 4.442 5.44h4.605c.136-.002.272-.127.3-.262l.495-1.927c.028-.137-.064-.177-.202-.177H31.81c-1.64 0-2.226-.505-2.169-1.64-.001-.128.147-.457.285-.457h6.973c.306-.002.316-.18.316-.18.71-3.205.756-6.783-3.847-6.783" fill="#2E2F2C" fill-rule="nonzero" mask="url(#n)"/></g><g transform="translate(26.2)"><mask id="p" fill="#fff"><use xlink:href="#o"/></mask><path d="M9.774 9.54l-.56 1.916c-.04.135-.197.224-.336.224H5.986c-2.195 0-2.728-1.696-2.195-4.226.536-2.587 1.597-4.188 3.755-4.35 2.951-.222 3.555 1.862 2.84 4.257l-.612 2.18zm2.57 2.03s1.362-3.309 1.671-5.222c.423-2.56-.857-6.272-5.808-6.272C3.285.076 1.15 3.621.332 7.474c-.814 3.88.252 7.26 5.146 7.232l7.47-.004a.35.35 0 0 0 .317-.245l.63-2.398c.034-.135-.051-.245-.191-.246l-.602-.004-.601-.003c-.118 0-.187-.078-.17-.18a.168.168 0 0 1 .013-.055z" fill="#2E2F2C" fill-rule="nonzero" mask="url(#p)"/></g></g></g></svg>