<svg
  width="100%"
  height="100%"
  viewBox="0 0 920 139"
  version="1.1"
  xmlns="http://www.w3.org/2000/svg"
  xmlns:xlink="http://www.w3.org/1999/xlink"
  style="fill-rule:evenodd;clip-rule:evenodd;stroke-linejoin:round;stroke-miterlimit:2;"
  fill="currentColor"
>
  <g
    id="nirusu-logo"
    transform="matrix(1,0,0,1,-80.6043,-433.92)"
  >
    <rect
      x="80.604"
      y="433.92"
      width="919.396"
      height="138.752"
      style="fill:none;"
    />
    <clipPath id="_clip1">
      <rect
        x="80.604"
        y="433.92"
        width="919.396"
        height="138.752"
      />
    </clipPath>
    <g clip-path="url(#_clip1)">
      <g
        id="curves"
        transform="matrix(8.80531,0,0,8.80531,-5688.85,-7193.23)"
      >
        <g transform="matrix(41.5723,0,0,41.5723,657.319,880.293)">
          <path
            d="M0.002,-0.102C0.007,-0.102 0.013,-0.101 0.018,-0.1C0.023,-0.098 0.027,-0.095 0.03,-0.091C0.036,-0.084 0.039,-0.077 0.039,-0.071C0.038,-0.064 0.036,-0.058 0.033,-0.052C0.05,-0.055 0.068,-0.059 0.085,-0.064L0.163,-0.085C0.172,-0.088 0.182,-0.09 0.192,-0.091C0.201,-0.092 0.211,-0.093 0.221,-0.093C0.23,-0.092 0.239,-0.09 0.247,-0.086C0.258,-0.081 0.265,-0.074 0.267,-0.067C0.269,-0.06 0.268,-0.052 0.265,-0.044C0.274,-0.047 0.284,-0.049 0.293,-0.052C0.302,-0.054 0.312,-0.057 0.321,-0.06C0.339,-0.065 0.357,-0.071 0.376,-0.077C0.394,-0.082 0.412,-0.088 0.431,-0.093C0.44,-0.096 0.45,-0.098 0.462,-0.102C0.473,-0.105 0.483,-0.103 0.492,-0.097C0.497,-0.093 0.501,-0.088 0.502,-0.083C0.503,-0.077 0.503,-0.071 0.502,-0.066C0.5,-0.06 0.497,-0.055 0.492,-0.052C0.487,-0.048 0.482,-0.046 0.476,-0.046C0.451,-0.044 0.425,-0.038 0.399,-0.028C0.373,-0.018 0.348,-0.009 0.324,-0.002C0.317,0 0.308,0.003 0.299,0.006C0.289,0.009 0.279,0.012 0.269,0.015C0.259,0.018 0.249,0.019 0.239,0.02C0.229,0.021 0.22,0.019 0.212,0.016C0.203,0.012 0.196,0.005 0.193,-0.005C0.189,-0.014 0.188,-0.024 0.191,-0.034C0.176,-0.033 0.162,-0.03 0.148,-0.027C0.134,-0.024 0.12,-0.02 0.106,-0.017C0.097,-0.014 0.087,-0.011 0.077,-0.008C0.066,-0.005 0.056,-0.001 0.046,0.002C0.035,0.005 0.025,0.008 0.015,0.01C0.004,0.012 -0.006,0.013 -0.016,0.012C-0.022,0.011 -0.028,0.009 -0.034,0.006C-0.042,0.001 -0.047,-0.005 -0.048,-0.011C-0.049,-0.017 -0.049,-0.023 -0.047,-0.029C-0.044,-0.035 -0.041,-0.041 -0.037,-0.047C-0.032,-0.053 -0.028,-0.059 -0.024,-0.064C-0.027,-0.073 -0.026,-0.081 -0.022,-0.09C-0.017,-0.098 -0.009,-0.102 0.002,-0.102Z"
            style="fill-rule:nonzero;"
          />
        </g>
        <g transform="matrix(41.5723,0,0,41.5723,677.149,880.293)">
          <path
            d="M0.258,-0.289C0.258,-0.282 0.257,-0.276 0.255,-0.272C0.253,-0.268 0.25,-0.265 0.246,-0.264C0.242,-0.262 0.237,-0.261 0.232,-0.262C0.227,-0.263 0.221,-0.264 0.216,-0.265C0.216,-0.252 0.211,-0.241 0.202,-0.232C0.195,-0.225 0.185,-0.22 0.172,-0.216C0.158,-0.212 0.143,-0.21 0.127,-0.209C0.111,-0.208 0.095,-0.209 0.079,-0.212C0.063,-0.214 0.049,-0.218 0.037,-0.224C0.025,-0.23 0.016,-0.238 0.011,-0.248C0.006,-0.258 0.006,-0.27 0.012,-0.285C0.017,-0.298 0.025,-0.308 0.036,-0.315C0.047,-0.322 0.059,-0.327 0.073,-0.33C0.086,-0.333 0.1,-0.335 0.115,-0.336C0.129,-0.337 0.142,-0.337 0.153,-0.336C0.16,-0.336 0.169,-0.335 0.181,-0.334C0.192,-0.333 0.204,-0.33 0.215,-0.327C0.226,-0.324 0.236,-0.319 0.245,-0.313C0.253,-0.307 0.257,-0.299 0.258,-0.289ZM0.002,-0.102C0.011,-0.101 0.017,-0.099 0.022,-0.096C0.027,-0.092 0.03,-0.087 0.032,-0.082C0.033,-0.076 0.034,-0.07 0.033,-0.063C0.032,-0.056 0.031,-0.05 0.03,-0.043C0.036,-0.044 0.042,-0.045 0.048,-0.046C0.053,-0.046 0.058,-0.047 0.062,-0.048C0.079,-0.052 0.096,-0.057 0.113,-0.063C0.135,-0.07 0.157,-0.078 0.18,-0.085C0.202,-0.092 0.225,-0.097 0.248,-0.1C0.255,-0.101 0.262,-0.1 0.27,-0.098C0.277,-0.096 0.284,-0.093 0.289,-0.088C0.294,-0.083 0.296,-0.078 0.297,-0.072C0.297,-0.065 0.293,-0.059 0.284,-0.052C0.279,-0.049 0.275,-0.047 0.27,-0.047C0.265,-0.047 0.259,-0.047 0.254,-0.046C0.244,-0.045 0.234,-0.043 0.224,-0.041C0.214,-0.039 0.204,-0.037 0.195,-0.034C0.175,-0.029 0.155,-0.023 0.136,-0.017C0.116,-0.011 0.096,-0.005 0.077,0.002C0.066,0.006 0.053,0.011 0.038,0.016C0.023,0.021 0.009,0.021 -0.004,0.017C-0.012,0.014 -0.018,0.009 -0.022,0.004C-0.025,-0.002 -0.028,-0.009 -0.029,-0.016C-0.029,-0.023 -0.029,-0.03 -0.028,-0.037C-0.027,-0.044 -0.025,-0.051 -0.023,-0.058C-0.026,-0.062 -0.027,-0.067 -0.027,-0.072C-0.027,-0.077 -0.026,-0.082 -0.024,-0.087C-0.022,-0.091 -0.019,-0.094 -0.015,-0.098C-0.01,-0.1 -0.005,-0.102 0.002,-0.102ZM0.18,-0.26C0.183,-0.267 0.181,-0.274 0.175,-0.279C0.174,-0.28 0.173,-0.28 0.172,-0.28C0.171,-0.28 0.171,-0.28 0.17,-0.281C0.163,-0.282 0.154,-0.284 0.143,-0.286C0.132,-0.287 0.12,-0.288 0.109,-0.288C0.097,-0.288 0.086,-0.287 0.076,-0.284C0.066,-0.281 0.059,-0.276 0.054,-0.269C0.054,-0.268 0.054,-0.268 0.053,-0.267C0.054,-0.262 0.059,-0.258 0.068,-0.255C0.076,-0.252 0.085,-0.249 0.095,-0.248C0.105,-0.247 0.115,-0.246 0.124,-0.246L0.143,-0.246C0.15,-0.247 0.156,-0.249 0.163,-0.251C0.169,-0.252 0.175,-0.255 0.18,-0.26Z"
            style="fill-rule:nonzero;"
          />
        </g>
        <g transform="matrix(41.5723,0,0,41.5723,687.957,880.293)">
          <path
            d="M0.003,-0.102C0.016,-0.101 0.025,-0.097 0.029,-0.09C0.033,-0.083 0.034,-0.074 0.033,-0.064C0.05,-0.079 0.065,-0.095 0.076,-0.114C0.079,-0.118 0.081,-0.122 0.084,-0.127C0.086,-0.132 0.089,-0.136 0.092,-0.14C0.094,-0.144 0.098,-0.147 0.102,-0.15C0.106,-0.152 0.111,-0.153 0.117,-0.152C0.127,-0.151 0.133,-0.146 0.136,-0.139C0.139,-0.132 0.14,-0.124 0.14,-0.116C0.143,-0.109 0.152,-0.105 0.166,-0.103C0.18,-0.1 0.196,-0.099 0.213,-0.099C0.23,-0.098 0.246,-0.098 0.261,-0.1C0.276,-0.1 0.287,-0.101 0.293,-0.101C0.299,-0.101 0.306,-0.101 0.314,-0.103C0.321,-0.103 0.329,-0.104 0.337,-0.105C0.345,-0.106 0.353,-0.106 0.36,-0.105C0.367,-0.103 0.374,-0.101 0.379,-0.097C0.384,-0.093 0.388,-0.088 0.39,-0.083C0.391,-0.077 0.391,-0.071 0.389,-0.066C0.387,-0.061 0.384,-0.056 0.38,-0.053C0.375,-0.049 0.37,-0.047 0.363,-0.047C0.352,-0.044 0.341,-0.044 0.329,-0.045C0.316,-0.046 0.305,-0.046 0.294,-0.045L0.24,-0.045C0.222,-0.045 0.204,-0.046 0.186,-0.047C0.173,-0.048 0.16,-0.051 0.146,-0.054C0.132,-0.057 0.12,-0.063 0.109,-0.07C0.102,-0.061 0.094,-0.053 0.086,-0.045C0.078,-0.036 0.07,-0.028 0.062,-0.021C0.054,-0.014 0.046,-0.006 0.037,0.002C0.028,0.009 0.018,0.014 0.007,0.017C-0.007,0.021 -0.019,0.018 -0.029,0.008C-0.034,0.003 -0.036,-0.003 -0.037,-0.009C-0.038,-0.014 -0.037,-0.02 -0.036,-0.026C-0.034,-0.032 -0.032,-0.038 -0.03,-0.044C-0.027,-0.05 -0.025,-0.056 -0.023,-0.061C-0.026,-0.07 -0.026,-0.079 -0.021,-0.088C-0.016,-0.097 -0.008,-0.102 0.003,-0.102Z"
            style="fill-rule:nonzero;"
          />
        </g>
        <g transform="matrix(41.5723,0,0,41.5723,703.09,880.293)">
          <path
            d="M0.002,-0.102C0.015,-0.102 0.024,-0.097 0.031,-0.088C0.038,-0.079 0.039,-0.07 0.036,-0.063C0.032,-0.056 0.027,-0.048 0.021,-0.041C0.033,-0.041 0.045,-0.043 0.058,-0.046C0.07,-0.049 0.082,-0.054 0.095,-0.059C0.107,-0.064 0.119,-0.069 0.131,-0.074C0.143,-0.079 0.154,-0.084 0.165,-0.087C0.174,-0.089 0.184,-0.09 0.195,-0.09C0.205,-0.09 0.214,-0.086 0.221,-0.079C0.226,-0.072 0.229,-0.066 0.23,-0.061C0.23,-0.056 0.229,-0.051 0.226,-0.046L0.275,-0.061C0.294,-0.066 0.312,-0.072 0.33,-0.077C0.348,-0.082 0.366,-0.086 0.385,-0.091C0.39,-0.092 0.395,-0.094 0.402,-0.096C0.408,-0.098 0.414,-0.1 0.421,-0.101C0.427,-0.102 0.433,-0.103 0.439,-0.103C0.445,-0.102 0.45,-0.1 0.455,-0.097C0.461,-0.093 0.465,-0.088 0.466,-0.083C0.467,-0.077 0.467,-0.071 0.466,-0.066C0.464,-0.061 0.461,-0.056 0.456,-0.052C0.451,-0.048 0.446,-0.046 0.439,-0.046C0.416,-0.044 0.394,-0.04 0.372,-0.033C0.349,-0.025 0.327,-0.018 0.305,-0.011C0.283,-0.003 0.261,0.004 0.239,0.01C0.216,0.016 0.194,0.019 0.171,0.019C0.159,0.019 0.15,0.015 0.143,0.008C0.135,0.001 0.131,-0.008 0.131,-0.017C0.108,-0.008 0.086,-0.001 0.063,0.006C0.04,0.013 0.017,0.014 -0.004,0.011C-0.017,0.009 -0.027,0.005 -0.033,-0.001C-0.039,-0.006 -0.042,-0.013 -0.043,-0.021C-0.044,-0.028 -0.042,-0.036 -0.039,-0.045C-0.035,-0.054 -0.03,-0.062 -0.025,-0.07C-0.026,-0.077 -0.025,-0.084 -0.02,-0.091C-0.015,-0.098 -0.008,-0.101 0.002,-0.102Z"
            style="fill-rule:nonzero;"
          />
        </g>
        <g transform="matrix(41.5723,0,0,41.5723,721.465,880.293)">
          <path
            d="M-0.013,-0.055C-0.021,-0.063 -0.025,-0.071 -0.025,-0.078C-0.025,-0.085 -0.023,-0.091 -0.018,-0.096C-0.013,-0.1 -0.008,-0.102 -0.001,-0.104C0.006,-0.105 0.012,-0.103 0.018,-0.098C0.027,-0.091 0.039,-0.086 0.054,-0.084C0.069,-0.082 0.085,-0.08 0.1,-0.079C0.115,-0.077 0.129,-0.074 0.142,-0.071C0.154,-0.067 0.162,-0.06 0.165,-0.049C0.19,-0.056 0.215,-0.063 0.24,-0.069C0.265,-0.074 0.288,-0.079 0.309,-0.084C0.318,-0.086 0.329,-0.089 0.342,-0.092C0.355,-0.094 0.368,-0.097 0.381,-0.1C0.394,-0.103 0.407,-0.104 0.42,-0.105C0.433,-0.105 0.444,-0.104 0.454,-0.101C0.459,-0.099 0.464,-0.096 0.467,-0.092C0.47,-0.088 0.472,-0.084 0.473,-0.079C0.474,-0.074 0.473,-0.069 0.472,-0.064C0.47,-0.059 0.467,-0.055 0.462,-0.052C0.455,-0.047 0.447,-0.044 0.437,-0.045C0.426,-0.046 0.417,-0.045 0.409,-0.044C0.365,-0.039 0.321,-0.031 0.278,-0.021C0.234,-0.011 0.191,0.001 0.149,0.015C0.143,0.017 0.135,0.021 0.126,0.026C0.116,0.031 0.106,0.035 0.097,0.038C0.087,0.041 0.078,0.043 0.069,0.043C0.06,0.042 0.054,0.038 0.049,0.03C0.046,0.023 0.045,0.017 0.046,0.011C0.047,0.005 0.049,-0 0.054,-0.006C0.058,-0.011 0.063,-0.015 0.069,-0.019C0.075,-0.022 0.081,-0.025 0.088,-0.027C0.081,-0.028 0.072,-0.029 0.063,-0.031C0.054,-0.032 0.044,-0.033 0.035,-0.035C0.026,-0.036 0.017,-0.039 0.008,-0.042C-0.001,-0.045 -0.008,-0.049 -0.013,-0.055Z"
            style="fill-rule:nonzero;"
          />
        </g>
        <g transform="matrix(41.5723,0,0,41.5723,740.297,880.293)">
          <path
            d="M0.002,-0.102C0.015,-0.102 0.024,-0.097 0.031,-0.088C0.038,-0.079 0.039,-0.07 0.036,-0.063C0.032,-0.056 0.027,-0.048 0.021,-0.041C0.033,-0.041 0.045,-0.043 0.058,-0.046C0.07,-0.049 0.082,-0.054 0.095,-0.059C0.107,-0.064 0.119,-0.069 0.131,-0.074C0.143,-0.079 0.154,-0.084 0.165,-0.087C0.174,-0.089 0.184,-0.09 0.195,-0.09C0.205,-0.09 0.214,-0.086 0.221,-0.079C0.226,-0.072 0.229,-0.066 0.23,-0.061C0.23,-0.056 0.229,-0.051 0.226,-0.046L0.275,-0.061C0.294,-0.066 0.312,-0.072 0.33,-0.077C0.348,-0.082 0.366,-0.086 0.385,-0.091C0.39,-0.092 0.395,-0.094 0.402,-0.096C0.408,-0.098 0.414,-0.1 0.421,-0.101C0.427,-0.102 0.433,-0.103 0.439,-0.103C0.445,-0.102 0.45,-0.1 0.455,-0.097C0.461,-0.093 0.465,-0.088 0.466,-0.083C0.467,-0.077 0.467,-0.071 0.466,-0.066C0.464,-0.061 0.461,-0.056 0.456,-0.052C0.451,-0.048 0.446,-0.046 0.439,-0.046C0.416,-0.044 0.394,-0.04 0.372,-0.033C0.349,-0.025 0.327,-0.018 0.305,-0.011C0.283,-0.003 0.261,0.004 0.239,0.01C0.216,0.016 0.194,0.019 0.171,0.019C0.159,0.019 0.15,0.015 0.143,0.008C0.135,0.001 0.131,-0.008 0.131,-0.017C0.108,-0.008 0.086,-0.001 0.063,0.006C0.04,0.013 0.017,0.014 -0.004,0.011C-0.017,0.009 -0.027,0.005 -0.033,-0.001C-0.039,-0.006 -0.042,-0.013 -0.043,-0.021C-0.044,-0.028 -0.042,-0.036 -0.039,-0.045C-0.035,-0.054 -0.03,-0.062 -0.025,-0.07C-0.026,-0.077 -0.025,-0.084 -0.02,-0.091C-0.015,-0.098 -0.008,-0.101 0.002,-0.102Z"
            style="fill-rule:nonzero;"
          />
        </g>
      </g>
    </g>
  </g>
</svg>

